<svg width="10" height="10" viewBox="0 0 10 10" fill="none" xmlns="http://www.w3.org/2000/svg">
<path d="M1.73829 0.385254C1.31346 0.385254 0.969063 0.710415 0.969063 1.11151C0.969063 1.51261 1.31346 1.83777 1.73829 1.83777V0.385254ZM9.4306 1.11151H10.1998C10.1998 0.710415 9.85543 0.385254 9.4306 0.385254V1.11151ZM8.66137 8.37412C8.66137 8.77521 9.00577 9.10038 9.4306 9.10038C9.85543 9.10038 10.1998 8.77521 10.1998 8.37412H8.66137ZM0.425141 8.58684C0.124725 8.87046 0.124725 9.33029 0.425141 9.61391C0.72554 9.89755 1.21259 9.89755 1.51299 9.61391L0.425141 8.58684ZM1.73829 1.83777H9.4306V0.385254H1.73829V1.83777ZM8.66137 1.11151V8.37412H10.1998V1.11151H8.66137ZM8.88668 0.597976L0.425141 8.58684L1.51299 9.61391L9.97452 1.62505L8.88668 0.597976Z" fill="#111111"/>
</svg>
